<svg xmlns="http://www.w3.org/2000/svg" viewBox="0 0 420 180" role="img" aria-labelledby="title desc">
  <title id="title">Airtel Money</title>
  <desc id="desc">Airtel Money payment brand mark.</desc>
  <rect width="420" height="180" rx="28" fill="#e40000"/>
  <path fill="#ffffff" d="M115.5 125.6c8 0 17.4-1.9 28-5.6 15.8-5.5 28.4-13 40.7-20.5l3.2-2.1a303 303 0 0 0 38.4-27.7c20.3-17.1 31.9-35.2 33.7-52.3.6-6-1.5-10.7-6.1-13.6-4.3-2.7-10.7-3.1-18.6-1.2-18 4.4-36.4 18.2-53.5 31.9l-7.1 5.6-2.4 1.7c-19.3 12.6-39.5 25.6-62.3 33.2a53.6 53.6 0 0 1-15.8 2.9c-2.4 0-4.7-.3-6.8-.8-6.5-1.7-11.6-5.5-15-11.3-5.3-10.3-4-26.6 3.2-41.6 7.3-15 18.5-29 33.2-42.1 7-6.1 14.6-11.3 22.8-15.6l1-.3a98 98 0 0 1 15-7.1l.8-.3 4.2-1.6c22.8-5.8 8.9 13.6 8.9 13.6a107.7 107.7 0 0 1-15.5 15.3c-3.2 2.7-6.5 5.7-9.5 8.7l-.7.6c-4 3.9-9.5 9.2-9.2 16.8.5 10 11 16.1 21 16.4h.6c9.7 0 18.6-5.3 24.5-10 6.4-5.1 11.8-11 16.3-17.7 6.1-9.2 18.9-32.9 6.5-51.8-5-7.6-13.4-11.5-24.7-11.5-8 0-17.4 1.9-28 5.6-15.8 5.5-28.4 13-40.7 20.5l-3.2 2.1A303 303 0 0 0 58 93.4c-20.3 17.1-31.9 35.2-33.7 52.3-.6 6 1.5 10.7 6.1 13.6 4.3 2.7 10.7 3.1 18.6 1.2 18-4.4 36.4-18.2 53.5-31.9l7.1-5.6 2.4-1.7c19.3-12.6 39.5-25.6 62.3-33.2a53.6 53.6 0 0 1 15.8-2.9c2.4 0 4.7.3 6.8.8 6.5 1.7 11.6 5.5 15 11.3 5.3 10.3 4 26.6-3.2 41.6-7.3 15-18.5 29-33.2 42.1a198.7 198.7 0 0 1-22.8 15.6l-1 .3a98 98 0 0 1-15 7.1l-.8.3-4.2 1.6c-22.8 5.8-8.9-13.6-8.9-13.6a107.7 107.7 0 0 1 15.5-15.3c3.2-2.7 6.5-5.7 9.5-8.7l.7-.6c4-3.9 9.5-9.2 9.2-16.8-.5-10-11-16.1-21-16.4h-.6c-9.7 0-18.6 5.3-24.5 10-6.4 5.1-11.8 11-16.3 17.7-6.1 9.2-18.9 32.9-6.5 51.8 5 7.6 13.4 11.5 24.7 11.5z" transform="translate(0 6) scale(.62)"/>
  <text x="250" y="78" fill="#ffffff" font-family="Arial, Helvetica, sans-serif" font-size="54" font-weight="900" letter-spacing="-1.5" text-anchor="middle">airtel</text>
  <text x="250" y="124" fill="#ffffff" font-family="Arial, Helvetica, sans-serif" font-size="32" font-weight="800" letter-spacing=".5" text-anchor="middle">Money</text>
</svg>
