<svg width="419.99999999999994" height="180" xmlns="http://www.w3.org/2000/svg">
 <title>Airtel Money</title>

 <desc>Airtel Money payment brand mark.</desc>
 <g>
  <title>background</title>
  <rect fill="none" id="canvas_background" height="602" width="802" y="-1" x="-1"/>
 </g>
 <g>
  <title>Layer 1</title>
  <g id="svg_1" transform="translate(50,34) scale(4.650000095367432) ">
   <path id="svg_2" d="m10.125785,23.862c0.79,0 1.708,-0.19 2.751,-0.554c1.55,-0.538 2.784,-1.281 3.986,-2.009l0.316,-0.205a29.733,29.733 0 0 0 3.764,-2.72a16.574,16.574 0 0 0 5.457,-7.529c0.395,-1.138 0.949,-3.384 0.268,-5.487a7.117,7.117 0 0 0 -2.862,-3.749c-0.158,-0.126 -1.898,-1.47 -5.203,-1.47c-3.005,0 -6.31,1.107 -9.806,3.32l-0.11,0.08l-0.317,0.205a20.133,20.133 0 0 0 -2.309,1.693c-1.487,1.376 -3.163,3.669 -3.068,5.63c0.031,0.79 0.427,1.534 1.075,2.008a3.472,3.472 0 0 0 2.214,0.68c1.803,0 3.765,-0.948 5.109,-1.74l0.253,-0.157l0.696,-0.443l0.237,-0.158c1.898,-1.234 3.875,-2.515 6.105,-3.258a5.255,5.255 0 0 1 1.55,-0.285a3.163,3.163 0 0 1 0.664,0.08a2.112,2.112 0 0 1 1.47,1.106c0.523,1.012 0.396,2.61 -0.316,4.08a17.871,17.871 0 0 1 -4.887,5.836a19.488,19.488 0 0 1 -3.194,2.215l-0.095,0.031a9.634,9.634 0 0 1 -1.471,0.696l-0.08,0.032l-0.41,0.158c-2.23,0.57 -0.87,-1.329 -0.87,-1.329c0.474,-0.537 0.98,-1.028 1.518,-1.502c0.316,-0.269 0.633,-0.554 0.933,-0.854l0.064,-0.063c0.395,-0.38 0.933,-0.902 0.901,-1.645c-0.047,-0.98 -1.075,-1.582 -2.056,-1.613l-0.063,0c-0.95,0 -1.819,0.522 -2.404,0.98a7.27,7.27 0 0 0 -1.598,1.74c-0.6,0.901 -1.85,3.226 -0.632,5.077c0.49,0.743 1.313,1.123 2.42,1.123z" fill="#ffffff"/>
  </g>
  <text id="svg_3" text-anchor="middle" font-weight="900" font-size="60" font-family="Arial, Helvetica, sans-serif" fill="#ffffff" y="81" x="258">airtel</text>
  <text id="svg_4" text-anchor="middle" font-weight="800" font-size="35" font-family="Arial, Helvetica, sans-serif" fill="#ffffff" y="126" x="258">money</text>
 </g>
</svg>